<svg width="2174" height="715" xmlns="http://www.w3.org/2000/svg" xmlns:xlink="http://www.w3.org/1999/xlink" overflow="hidden">
    <defs>
        <clipPath id="clip0">
            <rect x="781" y="297" width="2174" height="715" />
        </clipPath>
    </defs>
    <g clip-path="url(#clip0)" transform="translate(-781 -297)" fill="#EBF5FF">
        <path
            d="M1363.16 548.637C1406.03 588.227 1444.04 633.164 1480.09 689.279L1468.88 703.151 1391.92 676.387ZM1277 297C1419.03 329.691 1521.09 400.565 1579.86 497.785L1523.93 529.776C1607.61 652.912 1675.96 850.562 1647.4 1012 1616.82 840.278 1558.36 679.698 1413.46 513.547L1478.44 477.844C1411.3 391.796 1345.54 344.746 1277 297Z"
            fill-rule="evenodd" />
        <path
            d="M1063 467C1094.95 467 1130 481.098 1130 517.93L1127.66 551.616C1112.86 555.537 1097.27 557.889 1081.7 557.889L1081.7 511.656C1074.69 510.097 1067.67 510.097 1060.66 511.656 1053.65 510.097 1046.64 510.097 1039.62 511.656L1039.62 718.502C1046.64 720.07 1053.65 720.07 1060.66 718.502 1067.67 720.07 1074.69 720.07 1081.7 718.502L1081.7 640.152C1073.91 629.966 1063.78 622.917 1052.09 618.995L1052.09 593.928 1130 593.928 1130 720.07C1130 756.109 1094.95 771 1063 771 1031.05 771 996 756.893 996 720.07L996 517.93C996 481.882 1031.05 467 1063 467Z"
            fill-rule="evenodd" />
        <path
            d="M1187.8 467.586C1199.53 466.805 1211.27 466.805 1223 467.586 1234.73 466.805 1245.68 466.805 1257.42 467.586L1302 762 1255.07 762 1249.6 722.172C1237.86 712.801 1223.78 705.776 1208.92 702.649L1208.92 677.653 1238.65 677.653 1220.66 547.243 1190.93 761.219 1144 761.219 1187.8 467.586Z"
            fill-rule="evenodd" />
        <path d="M781 468 827.146 468 823.231 718.208 894.413 718.208C895.196 733.07 895.196 747.139 894.413 762L781 762 781 468Z" fill-rule="evenodd" />
        <path d="M911 468 957 468 957 760 911 760 911 468Z" fill-rule="evenodd" />
        <path
            d="M1913 458C1944.95 458 1980 472.098 1980 508.92L1980 711.07C1980 747.108 1944.95 762 1913 762 1881.05 762 1846 747.893 1846 711.07L1846 508.92C1846 472.882 1881.05 458 1913 458ZM1891.96 508.92 1891.96 715.766C1898.98 717.335 1905.99 717.335 1913 715.766 1920.01 717.335 1927.03 717.335 1934.04 715.766L1934.04 508.92C1927.03 507.361 1920.01 507.361 1913 508.92 1905.99 507.361 1898.98 507.361 1891.96 508.92Z"
            fill-rule="evenodd" />
        <path
            d="M1678 462 1745 462C1776.94 462 1812 476.103 1812 512.914L1812 622.575C1812 658.602 1776.94 673.49 1745 673.49L1732.54 673.49 1732.54 648.42C1745.78 644.509 1756.69 637.452 1766.04 627.269L1766.04 511.346C1759.03 509.778 1752.02 509.778 1745 511.346L1723.96 511.346 1723.96 762 1678 762 1678 462Z"
            fill-rule="evenodd" />
        <path d="M2702 462.587C2713.78 461.804 2725.57 461.804 2737.36 462.587 2749.15 461.804 2760.14 461.804 2771.93 462.587L2812 759 2764.86 759 2759.36 719.113C2747.57 709.728 2733.43 702.692 2718.5 699.561L2718.5 674.529 2748.36 674.529 2735 542.361 2705.14 756.651 2658 756.651 2702 462.587Z"
            fill-rule="evenodd" />
        <path
            d="M2019 464 2085.83 464C2117.7 464 2152.68 478.093 2152.68 514.88L2152.68 611.938C2152.68 631.506 2140.24 648.724 2122.37 654.983 2137.91 687.077 2148.79 721.522 2155 756.741L2155 759.092 2109.15 759.092C2102.16 724.647 2090.5 692.561 2073.41 662.034L2073.41 636.981C2086.61 633.073 2097.49 626.022 2106.82 615.846L2106.82 512.529C2099.83 510.962 2092.83 510.962 2085.83 512.529L2064.86 512.529 2064.86 763 2019 763 2019 464Z"
            fill-rule="evenodd" />
        <path d="M2168 464 2306 464 2306 507.941 2260 507.941 2260 759 2214 759 2214 507.941 2168 507.941 2168 464Z" fill-rule="evenodd" />
        <path d="M2328 464 2373.96 464 2373.96 714.471C2380.97 716.038 2387.99 716.038 2395 714.471 2402.01 716.038 2409.02 716.038 2416.04 714.471L2416.04 464 2462 464 2462 712.13C2462 748.132 2426.94 763 2395 763 2363.05 763 2328 748.916 2328 712.13L2328 464Z" fill-rule="evenodd" />
        <path
            d="M2567.5 464C2599.68 464 2635 478.107 2635 514.93L2632.64 548.615C2617.73 552.536 2602.04 554.889 2586.34 554.889L2586.34 508.656C2579.27 507.097 2572.21 507.097 2565.14 508.656 2558.08 507.097 2551.02 507.097 2543.96 508.656L2543.96 715.502C2551.02 717.071 2558.08 717.071 2565.14 715.502 2572.21 717.071 2579.27 717.071 2586.34 715.502L2586.34 637.151C2578.49 626.965 2568.29 619.917 2556.51 615.995L2556.51 590.928 2635 590.928 2635 717.071C2635 753.109 2599.68 768 2567.5 768 2535.32 768 2500 753.893 2500 717.071L2500 514.93C2500 478.882 2535.32 464 2567.5 464Z"
            fill-rule="evenodd" />
        <path d="M2841 464 2887.14 464 2883.24 715.059 2954.41 715.059C2955.2 729.971 2955.2 744.088 2954.41 759L2841 759 2841 464Z" fill-rule="evenodd" />
    </g>

</svg>